HIERARCHY
ROOT RootJoint
{
    OFFSET   0.000000   0.000000   0.000000
    CHANNELS 6 Xposition Yposition Zposition Xrotation Yrotation Zrotation
    JOINT pelvis_lowerback
    {
        OFFSET   0.000000   0.093605   0.000000
        CHANNELS 3 Xrotation Yrotation Zrotation
        JOINT lowerback_torso
        {
            OFFSET   0.000000   0.100000   0.000000
            CHANNELS 3 Xrotation Yrotation Zrotation
            JOINT torso_head
            {
                OFFSET   0.000000   0.282350   0.000000
                CHANNELS 3 Xrotation Yrotation Zrotation
                End Site
                {
                    OFFSET   0.000000   0.192650   0.000000
                }
            }
            JOINT rTorso_Clavicle
            {
                OFFSET  -0.001000   0.157500   0.000000
                CHANNELS 3 Xrotation Yrotation Zrotation
                JOINT rShoulder
                {
                    OFFSET  -0.117647   0.000000   0.000000
                    CHANNELS 3 Xrotation Yrotation Zrotation
                    JOINT rElbow
                    {
                        OFFSET  -0.245000   0.000000   0.000000
                        CHANNELS 3 Xrotation Yrotation Zrotation
                        JOINT rWrist
                        {
                            OFFSET  -0.240000   0.000000   0.000000
                            CHANNELS 3 Xrotation Yrotation Zrotation
                            End Site
                            {
                                OFFSET  -0.116353  -0.002500   0.000000
                            }
                        }
                    }
                }
            }
            JOINT lTorso_Clavicle
            {
                OFFSET   0.001000   0.157500   0.000000
                CHANNELS 3 Xrotation Yrotation Zrotation
                JOINT lShoulder
                {
                    OFFSET   0.117647   0.000000   0.000000
                    CHANNELS 3 Xrotation Yrotation Zrotation
                    JOINT lElbow
                    {
                        OFFSET   0.245000   0.000000   0.000000
                        CHANNELS 3 Xrotation Yrotation Zrotation
                        JOINT lWrist
                        {
                            OFFSET   0.240000   0.000000   0.000000
                            CHANNELS 3 Xrotation Yrotation Zrotation
                            End Site
                            {
                                OFFSET   0.116353  -0.002500   0.000000
                            }
                        }
                    }
                }
            }
        }
    }
    JOINT rHip
    {
        OFFSET  -0.100000  -0.051395   0.000000
        CHANNELS 3 Xrotation Yrotation Zrotation
        JOINT rKnee
        {
            OFFSET   0.000000  -0.410000   0.000000
            CHANNELS 3 Xrotation Yrotation Zrotation
            JOINT rAnkle
            {
                OFFSET   0.000000  -0.390000   0.000000
                CHANNELS 3 Xrotation Yrotation Zrotation
                JOINT rToeJoint
                {
                    OFFSET   0.000000  -0.050000   0.130000
                    CHANNELS 3 Xrotation Yrotation Zrotation
                    End Site
                    {
                        OFFSET  -0.010000   0.002000   0.060000
                    }
                }
            }
        }
    }
    JOINT lHip
    {
        OFFSET   0.100000  -0.051395   0.000000
        CHANNELS 3 Xrotation Yrotation Zrotation
        JOINT lKnee
        {
            OFFSET   0.000000  -0.410000   0.000000
            CHANNELS 3 Xrotation Yrotation Zrotation
            JOINT lAnkle
            {
                OFFSET   0.000000  -0.390000   0.000000
                CHANNELS 3 Xrotation Yrotation Zrotation
                JOINT lToeJoint
                {
                    OFFSET   0.000000  -0.050000   0.130000
                    CHANNELS 3 Xrotation Yrotation Zrotation
                    End Site
                    {
                        OFFSET   0.010000   0.002000   0.060000
                    }
                }
            }
        }
    }
}
MOTION
Frames: 15
Frame Time:   0.008333
 -2.225804   0.917054   5.481679   0.881527  62.812283 -12.236128   4.096842   7.948314  -3.328495   6.095274   5.979120  -4.892045   4.905907   9.275599  -4.002698   6.218219   8.803941  14.535659   6.466958  26.917349  45.022367   0.000271  18.055804   0.010104   9.664561   0.311643   0.576128   4.198325   3.020086 -12.374800  16.652866  -9.293470 -43.512865   0.001272 -28.948920  -0.040626   6.988944  -4.073457   1.058514 -16.874483 -11.453173  -6.741900  90.804065   0.074297   0.013285   4.051906   8.268177  14.657696  -0.582163   0.027276   0.002590 -15.160323 -13.164012  -4.546697  22.817133  -0.008491  -0.043491   4.299979 -13.971607   9.229920 -10.273030  -0.004761  -0.070867
 -2.224444   0.918578   5.485854   2.210703  65.681323 -13.712076   4.103267   7.717905  -3.119388   6.082294   5.685113  -4.757020   4.769179   9.276028  -3.903708   6.258407   8.566641  14.610846   6.596379  26.359995  44.846341   0.000415  17.972011   0.009250   9.654363   0.358948   0.502857   4.200757   2.826226 -12.535860  16.608990  -9.375721 -43.391443   0.000957 -29.085429  -0.034998   7.009234  -4.064137   1.121991 -17.012153 -11.601059  -6.804225  91.466376   0.075258   0.012704   3.917719   8.168528  14.724156  -0.487191   0.024001   0.002143 -14.892326 -12.989045  -4.497334  22.476701  -0.008760  -0.043855   4.591597 -13.798204   9.374322 -11.170221  -0.004372  -0.082067
 -2.223107   0.920023   5.489909   3.950627  68.553092 -15.601579   4.102832   7.460282  -2.908827   6.066199   5.367525  -4.616858   4.631981   9.274587  -3.800243   6.311864   8.321326  14.667633   6.731008  25.819119  44.668638   0.000546  17.885668   0.008597   9.637989   0.380670   0.395913   4.197250   2.631066 -12.691124  16.566769  -9.454288 -43.273111   0.000717 -29.204352  -0.030146   7.030955  -3.989424   1.172779 -17.117078 -11.738907  -6.850908  92.131204   0.076338   0.012128   3.795202   8.075627  14.785481  -0.392992   0.021396   0.001767 -14.650375 -12.798248  -4.440612  22.140294  -0.008949  -0.044163   4.861232 -13.606510   9.525036 -12.079873  -0.003422  -0.091866
 -2.221797   0.921396   5.493850   6.250438  71.380339 -18.047019   4.099468   7.200417  -2.707309   6.049663   5.049711  -4.482248   4.502240   9.272730  -3.700781   6.375095   8.078706  14.711094   6.866221  25.302228  44.498093   0.000653  17.799289   0.008086   9.621939   0.370951   0.286523   4.187193   2.442295 -12.833799  16.523575  -9.531124 -43.159671   0.000532 -29.316129  -0.026124   7.052007  -3.907855   1.224574 -17.198865 -11.858450  -6.889948  92.773581   0.076713   0.011433   3.682080   7.988875  14.842030  -0.303654   0.019209   0.001446 -14.434285 -12.619487  -4.380097  21.807950  -0.009008  -0.044235   5.112642 -13.424668   9.669107 -12.985072  -0.002073  -0.099317
 -2.220513   0.922685   5.497677   9.350023  74.126360 -21.289845   4.095718   6.949358  -2.515705   6.034221   4.742551  -4.355838   4.380726   9.270953  -3.607030   6.442581   7.844004  14.744750   6.997780  24.812199  44.336514   0.000737  17.714941   0.007659   9.606692   0.339979   0.182878   4.173266   2.262821 -12.964840  16.480729  -9.605041 -43.051969   0.000390 -29.421733  -0.022784   7.072178  -3.833298   1.279380 -17.263119 -11.962212  -6.922991  93.384231   0.076146   0.010609   3.577126   7.907740  14.894242  -0.220454   0.017305   0.001171 -14.242428 -12.456069  -4.319582  21.478433  -0.008966  -0.044069   5.351153 -13.258615   9.803101 -13.874382  -0.000528  -0.104300
 -2.219253   0.923875   5.501394  13.654456  76.753866 -25.738173   4.093060   6.712292  -2.333160   6.020545   4.451560  -4.237310   4.267279   9.269380  -3.519018   6.510109   7.620180  14.770815   7.122884  24.350260  44.184035   0.000799  17.634039   0.007275   9.592222   0.296930   0.084855   4.158118   2.094328 -13.085701  16.439792  -9.674808 -42.950616   0.000285 -29.521026  -0.019985   7.091413  -3.765672   1.335462 -17.313723 -12.053960  -6.949624  93.960381   0.074671   0.009695   3.479471   7.831873  14.942557  -0.143752   0.015610   0.000935 -14.073087 -12.307291  -4.262954  21.153067  -0.008847  -0.043636   5.578786 -13.108435   9.926667 -14.738805   0.001044  -0.106958
 -2.218014   0.924952   5.505004  19.875347  79.212548 -32.106000   4.092300   6.491524  -2.158977   6.008921   4.179395  -4.125752   4.161518   9.268013  -3.436399   6.574866   7.408895  14.791070   7.239875  23.916635  44.040413   0.000843  17.557439   0.006908   9.578449   0.248288  -0.009395   4.143565   1.937554 -13.197487  16.401828  -9.739607 -42.855698   0.000209 -29.613827  -0.017614   7.109690  -3.702123   1.391084 -17.353750 -12.136866  -6.969339  94.501739   0.072422   0.008736   3.388438   7.760980  14.987361  -0.073487   0.014078   0.000735 -13.924195 -12.171604  -4.213688  20.834460  -0.008667  -0.042902   5.795202 -12.972568  10.040509 -15.572102   0.002515  -0.107574
 -2.216428   0.925374   5.508707  29.175051  81.590048 -41.594986   4.162105   6.257839  -2.000768   6.020117   3.853231  -3.947703   3.967544   9.257939  -3.263016   6.601032   7.119844  14.831779   7.315410  23.406288  43.858923   0.001145  17.435251   0.007031   9.574638   0.293248  -0.059505   4.054303   1.762426 -13.342099  16.410740  -9.779336 -42.682961   0.000183 -29.557045  -0.013115   7.103993  -3.679360   1.404185 -17.073075 -12.173650  -6.929843  94.909941   0.067956   0.007620   3.216392   7.676406  15.087539   0.024775   0.013551   0.000521 -13.598082 -11.680559  -4.124947  20.661645  -0.008006  -0.039247   5.080807 -12.356728  10.159883 -14.665353  -0.002027  -0.054627
 -2.214725   0.925094   5.512440  45.473615  83.582303 -58.080850   4.187742   5.998281  -1.851989   6.008833   3.505665  -3.764978   3.777089   9.247004  -3.089579   6.648339   6.819689  14.849173   7.404816  22.905194  43.674510   0.001456  17.310087   0.007163   9.566319   0.290396  -0.133972   3.961028   1.589939 -13.453740  16.416438  -9.813495 -42.498860   0.000191 -29.498042  -0.009463   7.097932  -3.608615   1.439188 -16.733046 -12.195930  -6.882565  95.282729   0.063750   0.006579   3.055995   7.596175  15.179906   0.116083   0.013026   0.000317 -13.302005 -11.171683  -4.011645  20.506758  -0.007368  -0.035908   4.427923 -11.726204  10.293306 -13.522304  -0.005399  -0.003191
 -2.212941   0.924190   5.515962  70.366509  84.624685 -83.172950   4.173805   5.784855  -1.689373   5.974149   3.192509  -3.601871   3.594586   9.238597  -2.929586   6.698334   6.529706  14.844895   7.497184  22.424451  43.482864   0.001748  17.186175   0.007209   9.559441   0.245386  -0.225669   3.875160   1.434965 -13.561787  16.422803  -9.841867 -42.325579   0.000197 -29.441122  -0.006591   7.090694  -3.524617   1.495998 -16.409635 -12.162072  -6.849252  95.630981   0.059518   0.005464   2.908093   7.519517  15.263680   0.203783   0.012462   0.000101 -13.014240 -10.774140  -4.077402  20.379503  -0.006831  -0.032087   3.719269 -11.341979  10.367278 -14.033400  -0.004317  -0.018481
 -2.211224   0.922787   5.519462  98.664014  84.342374 -111.690677   4.144770   5.561005  -1.534997   5.918125   2.883678  -3.440015   3.418165   9.229693  -2.776867   6.744242   6.255920  14.835337   7.582779  21.972036  43.298126   0.001969  17.068636   0.007171   9.551883   0.182919  -0.333606   3.783358   1.280690 -13.653204  16.422169  -9.872573 -42.154179   0.000194 -29.389888  -0.004407   7.083625  -3.446442   1.571137 -16.094912 -12.147505  -6.799261  95.945894   0.055216   0.004458   2.769628   7.448120  15.342229   0.284251   0.011819  -0.000082 -12.760991 -10.359296  -4.160407  20.225482  -0.006666  -0.029710   2.996464 -10.884470  10.476706 -14.969286  -0.002479  -0.044444
 -2.209735   0.921428   5.522894 119.928138  82.882278 -133.079168   4.158245   5.310177  -1.484164   5.868047   2.559716  -3.320026   3.251349   9.219153  -2.636634   6.775744   6.013989  14.857563   7.651771  21.556513  43.133457   0.002071  16.958938   0.007123   9.542762   0.112156  -0.460252   3.661362   1.100870 -13.736594  16.399181  -9.918593 -41.970953   0.000172 -29.344792  -0.002775   7.077161  -3.374333   1.687786 -15.804051 -12.130816  -6.815090  96.211140   0.050644   0.003668   2.640087   7.381239  15.415593   0.359107   0.011202  -0.000207 -12.616949  -9.956200  -4.250189  20.059708  -0.006492  -0.028186   2.025382 -10.375868  10.698115 -14.869235  -0.002502  -0.032307
 -2.208396   0.920200   5.526198 132.769114  80.780664 -145.974218   4.199415   5.059446  -1.485526   5.837157   2.236578  -3.241682   3.101810   9.208467  -2.511907   6.801858   5.794027  14.891579   7.710747  21.172671  42.986890   0.002080  16.857508   0.007048   9.533824   0.046540  -0.581356   3.523785   0.909747 -13.824242  16.361173  -9.978613 -41.797228   0.000139 -29.308683  -0.001621   7.072046  -3.329129   1.817564 -15.523669 -12.099585  -6.859875  96.436454   0.046046   0.003064   2.518940   7.317996  15.483375   0.427689   0.010578  -0.000282 -12.530007  -9.569822  -4.337902  19.922416  -0.006057  -0.026220   1.054259  -9.898704  10.925122 -14.759838  -0.002637  -0.022328
 -2.207200   0.919448   5.529301 140.354109  78.478560 -153.599247   4.309474   4.899653  -1.503254   5.766624   1.939704  -3.169279   2.887286   9.172386  -2.368306   6.784610   5.525504  14.999756   7.802044  20.716676  42.780526   0.001941  16.793220   0.006450   9.566002   0.056528  -0.690601   3.382697   0.640883 -14.011326  16.274193  -9.935161 -41.560157   0.000171 -29.070968   0.002756   7.125385  -3.436128   1.912709 -15.262333 -11.924913  -6.816918  96.564994   0.040049   0.002597   2.612066   7.241701  15.390865   0.365632   0.006891  -0.000108 -12.522071  -9.152002  -4.434424  19.833190  -0.005391  -0.023306   0.458834  -9.554886  11.216781 -15.048130  -0.000580  -0.026461
 -2.206011   0.918927   5.532233 145.284943  76.110326 -158.580731   4.421665   4.758699  -1.502297   5.709839   1.665303  -3.097567   2.682515   9.139315  -2.230443   6.778732   5.262220  15.087115   7.893871  20.280468  42.582296   0.001820  16.729990   0.005958   9.596044   0.065445  -0.803447   3.259684   0.395809 -14.189642  16.200773  -9.885228 -41.339938   0.000167 -28.838092   0.006122   7.174778  -3.476399   1.999862 -15.000293 -11.742024  -6.732706  96.665999   0.034515   0.002208   2.700157   7.168560  15.302787   0.317618   0.004318  -0.000011 -12.527840  -8.763121  -4.521177  19.755353  -0.004774  -0.020613   0.012763  -9.239125  11.475771 -15.465819   0.001714  -0.033117
